<svg width="172" height="112" viewBox="0 0 172 112" fill="none" xmlns="http://www.w3.org/2000/svg">
<path fill-rule="evenodd" clip-rule="evenodd" d="M48.3145 44.5352C51.3263 44.5352 54.0809 45.2292 56.5547 46.6309C59.0303 47.9949 60.972 49.941 62.3701 52.4492C63.7729 54.966 64.4628 57.8163 64.4629 60.9727C64.4628 64.1651 63.7739 67.0351 62.3701 69.5537C60.9715 72.0628 59.029 74.0275 56.5547 75.4297L56.5498 75.4326C54.1107 76.7967 51.3568 77.4678 48.3145 77.4678C45.7087 77.4677 43.3177 76.9376 41.1611 75.8594L41.1504 75.8545L41.1406 75.8486C39.8829 75.1828 38.7607 74.3394 37.7705 73.3281V111.077H31.6494V88.3945H31.6465V70.1641L31.6494 70.1582V46.4258H37.7705V62.4961L37.7979 62.7188C37.9769 64.1731 38.3853 65.4917 39.0176 66.6826C39.9345 68.3373 41.155 69.6048 42.6807 70.5098C44.2517 71.3805 46.0263 71.8252 48.0264 71.8252C49.9881 71.8251 51.7466 71.3803 53.3223 70.5049C54.8831 69.5994 56.0966 68.3344 56.9717 66.6895L56.9795 66.6758C57.8904 65.0291 58.3583 63.1358 58.3584 60.9727C58.3583 58.8091 57.8897 56.9394 56.9834 55.3359L56.9775 55.3242L56.9717 55.3135C56.0936 53.663 54.8755 52.3941 53.3076 51.4883C51.7345 50.5794 49.9812 50.1202 48.0264 50.1201C46.6824 50.1201 45.4431 50.3293 44.3018 50.7393L41.8164 51.6318L45.3555 45.1826L45.6016 44.7354L46.1074 44.6719C46.8239 44.5816 47.5597 44.5352 48.3145 44.5352ZM47.0029 72.7861C47.208 72.8013 47.4149 72.8134 47.624 72.8193L47.251 72.8037C47.1679 72.7991 47.0853 72.7922 47.0029 72.7861ZM41.2686 70.7734C41.5388 70.9725 41.8204 71.158 42.1113 71.333C41.9257 71.2213 41.7436 71.1059 41.5664 70.9844C41.466 70.9155 41.3673 70.8445 41.2695 70.7725L41.2686 70.7734ZM59.3232 61.9775C59.3265 61.9278 59.3322 61.8781 59.335 61.8281L59.3359 61.8018C59.3328 61.8606 59.3271 61.9191 59.3232 61.9775ZM63.4629 60.9727L63.4561 60.4482C63.4559 60.443 63.4552 60.4378 63.4551 60.4326C63.4598 60.6114 63.4629 60.7915 63.4629 60.9727ZM61.4971 52.9365C61.5044 52.9498 61.5112 52.9633 61.5186 52.9766L61.4971 52.9365ZM55.5957 51.9209C55.6861 52.0026 55.7749 52.086 55.8623 52.1709C55.6876 52.0012 55.5071 51.8377 55.3203 51.6807L55.5957 51.9209ZM49.0791 49.1631C48.9903 49.1558 48.9011 49.149 48.8115 49.1436L48.7871 49.1426C48.8849 49.1483 48.9822 49.1552 49.0791 49.1631Z" fill="white"></path>
<path fill-rule="evenodd" clip-rule="evenodd" d="M37.7705 111.077H31.6494V46.4258H37.7705V111.077ZM32.6494 110.077H36.7705V47.4258H32.6494V110.077Z" fill="white"></path>
<path fill-rule="evenodd" clip-rule="evenodd" d="M156.197 44.5361C159.054 44.5361 161.656 45.1907 163.979 46.5176C166.327 47.8371 168.186 49.676 169.545 52.0195C170.952 54.3778 171.686 57.0544 171.768 60.0215L171.791 60.8682L147.132 65.6621C147.873 67.4231 149 68.8339 150.516 69.917L150.867 70.1465C152.65 71.2558 154.761 71.8262 157.238 71.8262C159.005 71.8262 160.604 71.5207 162.048 70.9238C163.528 70.2893 164.771 69.3781 165.786 68.1875L166.54 67.3047L170.173 71.4824L169.628 72.1367C168.174 73.8818 166.365 75.2093 164.22 76.1172C162.079 77.023 159.727 77.4687 157.181 77.4688C153.915 77.4688 150.972 76.7819 148.38 75.3828L148.369 75.377C145.786 73.9419 143.763 71.9632 142.321 69.4502C140.877 66.9335 140.165 64.099 140.165 60.9736C140.165 57.8583 140.834 55.0314 142.193 52.5186L142.199 52.5078C143.595 50.0028 145.516 48.039 147.951 46.6357C150.392 45.2292 153.15 44.5362 156.197 44.5361ZM150.341 70.9961C150.417 71.0435 150.495 71.0882 150.572 71.1338C150.487 71.0833 150.401 71.0332 150.316 70.9805L150.341 70.9961ZM145.187 61.7246L145.212 61.9561L145.18 61.627C145.182 61.6607 145.184 61.6933 145.187 61.7246ZM145.169 61.4355C145.17 61.4663 145.173 61.4962 145.175 61.5254C145.168 61.3958 145.161 61.2504 145.158 61.0889L145.169 61.4355ZM156.197 50.0635C154.242 50.0635 152.512 50.5227 150.982 51.4268L150.977 51.4307C149.488 52.2959 148.304 53.5236 147.424 55.1406L147.425 55.1416C146.588 56.71 146.154 58.5488 146.154 60.6846C146.154 60.7079 146.154 60.7313 146.154 60.7539L165.457 57.0078C164.938 55.1214 163.949 53.5637 162.485 52.3086L162.477 52.3008C160.787 50.8182 158.715 50.0635 156.197 50.0635ZM149.578 51.1504C149.535 51.1822 149.492 51.2156 149.449 51.248C149.504 51.2067 149.559 51.1653 149.614 51.125L149.578 51.1504ZM150.474 50.5654C150.327 50.6506 150.184 50.7405 150.043 50.832C150.084 50.8053 150.125 50.7782 150.167 50.752L150.474 50.5654ZM164.285 47.8711C164.412 47.9536 164.537 48.038 164.66 48.124C164.41 47.9497 164.154 47.7827 163.89 47.623L164.285 47.8711Z" fill="white"></path>
<path fill-rule="evenodd" clip-rule="evenodd" d="M14.4053 44.5352C16.4636 44.5352 18.5187 44.8175 20.5674 45.3799L20.5664 45.3809C22.6005 45.9009 24.3266 46.6113 25.7139 47.5361L26.4746 48.043L23.7129 53.1201L22.7979 52.4863C20.4822 50.8833 17.6998 50.0626 14.4053 50.0625C11.875 50.0625 10.1254 50.5136 9.01562 51.2744C7.9574 52.0253 7.48361 52.9426 7.4834 54.0918C7.4834 55.0139 7.76517 55.6596 8.26465 56.1357C8.91051 56.7133 9.71529 57.1623 10.7012 57.4697C11.5036 57.6902 12.5456 57.9252 13.833 58.1729L15.2148 58.4268L15.2275 58.4287C17.6742 58.8947 19.6641 59.3665 21.1816 59.8457C22.8099 60.3599 24.2111 61.2435 25.3701 62.4883C26.6282 63.8396 27.2001 65.6516 27.2002 67.7949C27.2002 70.7903 25.9151 73.2105 23.4238 74.9717L23.4209 74.9736C20.9939 76.6768 17.6995 77.4678 13.6533 77.4678C11.0914 77.4678 8.62219 77.1075 6.25 76.3838L6.24023 76.3809L6.23047 76.377C3.91862 75.6196 2.03506 74.6615 0.632812 73.4717L0 72.9346L2.83789 67.9678L3.74902 68.6865C4.91231 69.603 6.40574 70.383 8.25195 71.0107C10.0725 71.5913 11.9678 71.8828 13.9424 71.8828C16.6552 71.8828 18.4614 71.4611 19.5273 70.7715C20.5984 70.0655 21.0947 69.143 21.0947 67.9102C21.0946 67.0329 20.8193 66.4681 20.3516 66.0742L20.3408 66.0645L20.3291 66.0537C19.7307 65.5185 18.9505 65.1018 17.9551 64.8271L17.9395 64.8232L17.9248 64.8184C16.868 64.4904 15.4331 64.172 13.6045 63.8672L13.585 63.8633C11.1 63.3974 9.07352 62.9264 7.51953 62.4482L7.50879 62.4453L7.49707 62.4414C5.83611 61.8877 4.40217 60.9678 3.20898 59.6895L3.20312 59.6826L3.19629 59.6758C1.94431 58.2845 1.37894 56.4186 1.37891 54.208C1.37901 51.3353 2.59854 48.9662 4.95215 47.1689C7.30588 45.3717 10.4975 44.5352 14.4053 44.5352ZM26.1768 67.0977C26.1921 67.3238 26.2002 67.5563 26.2002 67.7949L26.1953 67.4541C26.1915 67.3336 26.1847 67.2148 26.1768 67.0977ZM6.21191 60.792C6.29571 60.8385 6.38038 60.8837 6.46582 60.9277C6.55161 60.9719 6.63814 61.015 6.72559 61.0566C6.46364 60.932 6.20895 60.7952 5.96191 60.6475L6.21191 60.792ZM4.35449 59.4258C4.56671 59.6271 4.78655 59.8168 5.01367 59.9951L4.78906 59.8125C4.56681 59.6264 4.35188 59.4289 4.14453 59.2197L4.35449 59.4258ZM15.041 59.4121C15.3444 59.4699 15.6404 59.5272 15.9287 59.585L15.041 59.4121ZM2.40137 54.9307C2.4095 55.0556 2.42016 55.1786 2.43262 55.2998C2.40884 55.0686 2.39277 54.8306 2.38477 54.5859L2.40137 54.9307ZM2.39062 53.7393L2.3916 53.7363C2.3935 53.7007 2.39708 53.6653 2.39941 53.6299C2.39701 53.6663 2.39257 53.7027 2.39062 53.7393Z" fill="white"></path>
<path fill-rule="evenodd" clip-rule="evenodd" d="M85.0576 44.5352C87.6694 44.5352 90.0497 45.0879 92.1748 46.2129C93.4666 46.8615 94.6147 47.6962 95.6211 48.7109V44.7666H101.726V77.1787H95.7949V73.124C94.8005 74.1705 93.6536 75.0407 92.3535 75.7285C90.1871 76.895 87.7472 77.4677 85.0576 77.4678C82.0455 77.4678 79.2904 76.774 76.8164 75.3721C74.3423 73.97 72.4005 72.0052 71.002 69.4961C69.5992 66.9793 68.9092 64.1291 68.9092 60.9727C68.9092 57.8162 69.5991 54.966 71.002 52.4492C72.3998 49.9414 74.3414 47.9948 76.8164 46.6309C79.2904 45.229 82.0456 44.5352 85.0576 44.5352ZM85.4043 50.1201C83.4075 50.1201 81.636 50.5819 80.0654 51.4893L80.0586 51.4922C78.5327 52.3592 77.3113 53.6098 76.3926 55.2705C75.5204 56.9165 75.0723 58.8093 75.0723 60.9727C75.0723 63.1361 75.5204 65.0288 76.3926 66.6748L76.5684 66.9824C77.4639 68.4913 78.6269 69.6604 80.0586 70.5098C81.6297 71.3808 83.4038 71.8252 85.4043 71.8252C87.3666 71.8252 89.1023 71.3805 90.6348 70.5098C92.1997 69.6039 93.4163 68.3376 94.293 66.6895L94.2969 66.6826L94.3008 66.6748C95.2115 65.0282 95.6787 63.136 95.6787 60.9727C95.6787 58.8094 95.2115 56.917 94.3008 55.2705L94.2969 55.2627L94.293 55.2559C93.4167 53.6086 92.2024 52.3636 90.6426 51.4971L90.6309 51.4912L90.6191 51.4844C89.089 50.5803 87.3593 50.1201 85.4043 50.1201ZM91.1279 71.3799L91.4492 71.1875C91.5045 71.153 91.5579 71.1154 91.6123 71.0801C91.454 71.183 91.2933 71.2843 91.1279 71.3799ZM74.0947 61.8281C74.0987 61.9022 74.1044 61.9763 74.1094 62.0498C74.1038 61.9676 74.098 61.8847 74.0938 61.8018L74.0947 61.8281ZM96.6445 61.9756C96.6478 61.9266 96.6525 61.8773 96.6553 61.8281L96.6562 61.8018C96.6531 61.8598 96.6483 61.9179 96.6445 61.9756ZM86.4209 49.1611C86.344 49.155 86.2669 49.1483 86.1895 49.1436L86.166 49.1426C86.2514 49.1476 86.3363 49.1544 86.4209 49.1611Z" fill="white"></path>
<path fill-rule="evenodd" clip-rule="evenodd" d="M122.825 44.5352C125.573 44.5352 128.057 45.0802 130.255 46.1953L130.672 46.4053C132.73 47.4851 134.375 49.0302 135.59 51.0283L136.084 51.8408L131.398 55.0234L130.839 54.1846C129.931 52.8228 128.794 51.8298 127.426 51.1797L127.417 51.1748L127.408 51.1709C126.012 50.4731 124.49 50.1202 122.825 50.1201C120.787 50.1201 118.973 50.5835 117.361 51.4941L117.355 51.4971C115.792 52.3656 114.555 53.6155 113.64 55.2705C112.767 56.9164 112.319 58.8093 112.319 60.9727C112.319 63.1808 112.77 65.0948 113.644 66.7402C114.557 68.3509 115.794 69.6017 117.363 70.5098C118.973 71.381 120.787 71.8252 122.825 71.8252C124.498 71.8252 126.026 71.488 127.426 70.8232C128.794 70.1731 129.931 69.1802 130.839 67.8184L131.398 66.9795L136.084 70.1611L135.59 70.9736C134.296 73.1022 132.515 74.7345 130.268 75.8584L130.262 75.8623L130.255 75.8652C128.023 76.9399 125.54 77.4677 122.825 77.4678C119.668 77.4678 116.802 76.7782 114.25 75.3789L114.243 75.375C111.732 73.9754 109.751 72.0142 108.312 69.5068L108.309 69.501C106.868 66.9492 106.156 64.0982 106.156 60.9727C106.156 57.8473 106.869 55.0128 108.312 52.4961C109.751 49.9888 111.732 48.0274 114.243 46.6279L114.25 46.624C116.802 45.2248 119.669 44.5352 122.825 44.5352ZM129.028 75.3164C128.906 75.3664 128.783 75.4142 128.659 75.4609C128.919 75.363 129.175 75.2588 129.428 75.1465L129.028 75.3164ZM127.162 72.0254C127.198 72.0112 127.235 71.9989 127.271 71.9844L127.289 71.9766C127.247 71.9937 127.204 72.0088 127.162 72.0254ZM111.342 61.8418C111.346 61.9237 111.352 62.0057 111.357 62.0869C111.351 61.9966 111.345 61.9056 111.341 61.8145L111.342 61.8418ZM122.825 49.1201C122.551 49.1201 122.279 49.1279 122.011 49.1436L122.416 49.126C122.552 49.1221 122.688 49.1201 122.825 49.1201Z" fill="white"></path>
<path fill-rule="evenodd" clip-rule="evenodd" d="M48.3145 0C51.3263 0 54.0808 0.693984 56.5547 2.0957C59.0304 3.45975 60.972 5.40577 62.3701 7.91406C63.773 10.431 64.4629 13.281 64.4629 16.4375C64.4628 19.6301 63.774 22.4999 62.3701 25.0186C60.9715 27.5277 59.029 29.4924 56.5547 30.8945L56.5498 30.8975C54.1107 32.2615 51.3568 32.9326 48.3145 32.9326C45.7087 32.9326 43.3177 32.4024 41.1611 31.3242L41.1504 31.3193L41.1406 31.3135C39.8749 30.6434 38.7457 29.7943 37.751 28.7744V43.8594H31.6465V25.6289L37.4199 15.1074L37.7979 18.1836C37.9769 19.638 38.3852 20.9565 39.0176 22.1475C39.9345 23.8022 41.1549 25.0696 42.6807 25.9746C44.2517 26.8454 46.0263 27.29 48.0264 27.29C49.9881 27.2899 51.7466 26.8451 53.3223 25.9697C54.8832 25.0643 56.0966 23.7993 56.9717 22.1543L56.9795 22.1406C57.8905 20.4939 58.3583 18.6007 58.3584 16.4375C58.3584 14.2738 57.8897 12.4043 56.9834 10.8008L56.9775 10.7891L56.9717 10.7783C56.0936 9.12771 54.8755 7.85903 53.3076 6.95312C51.7345 6.04419 49.9813 5.58506 48.0264 5.58496C46.6824 5.58496 45.4431 5.79414 44.3018 6.2041L41.8164 7.09668L45.3555 0.647461L45.6016 0.200195L46.1074 0.136719C46.8239 0.0464353 47.5597 1.44019e-05 48.3145 0ZM39.6533 24.7686C39.6613 24.7775 39.6697 24.786 39.6777 24.7949C39.6541 24.7687 39.6308 24.7423 39.6074 24.7158C39.6229 24.7333 39.6378 24.7512 39.6533 24.7686ZM59.3232 17.4424C59.3265 17.3926 59.3322 17.343 59.335 17.293L59.3359 17.2666C59.3328 17.3254 59.3271 17.3839 59.3232 17.4424ZM49.0791 4.62793C48.9903 4.62065 48.9011 4.61381 48.8115 4.6084L48.7871 4.60742C48.8849 4.61313 48.9822 4.61999 49.0791 4.62793Z" fill="white"></path>
<path fill-rule="evenodd" clip-rule="evenodd" d="M106.734 0C109.819 0 112.63 0.692058 115.143 2.09277C117.652 3.49176 119.615 5.45265 121.016 7.96094L121.277 8.43652C122.546 10.8332 123.172 13.5072 123.172 16.4375C123.172 19.563 122.46 22.3973 121.016 24.9141C119.616 27.4198 117.657 29.3973 115.153 30.834L115.143 30.8398C112.63 32.2406 109.819 32.9326 106.734 32.9326C103.65 32.9326 100.839 32.2406 98.3262 30.8398L98.3154 30.834C95.8105 29.3967 93.8328 27.419 92.3955 24.9141C90.9514 22.3973 90.2393 19.563 90.2393 16.4375C90.2393 13.312 90.9515 10.4778 92.3955 7.96094C93.8342 5.45352 95.8154 3.49235 98.3262 2.09277C100.839 0.692065 103.65 7.41309e-06 106.734 0ZM106.734 5.58496C104.738 5.58497 102.966 6.04666 101.396 6.9541L101.389 6.95703C99.8627 7.82407 98.6414 9.07451 97.7227 10.7354C96.8504 12.3814 96.4023 14.274 96.4023 16.4375C96.4024 18.6011 96.8504 20.4936 97.7227 22.1396L97.8984 22.4473C98.7941 23.9562 99.9569 25.1252 101.389 25.9746C102.96 26.8456 104.734 27.29 106.734 27.29C108.739 27.29 110.493 26.8438 112.022 25.9746C113.588 25.0687 114.804 23.8025 115.681 22.1543C116.558 20.5048 117.009 18.6075 117.009 16.4375C117.009 14.2676 116.558 12.3702 115.681 10.7207C114.804 9.07329 113.59 7.82852 112.03 6.96191L112.019 6.95605L112.008 6.94922C110.48 6.04667 108.732 5.58496 106.734 5.58496ZM118.862 26.3506C118.931 26.2628 119.001 26.1756 119.068 26.0859C119.105 26.0372 119.139 25.9868 119.175 25.9375C119.073 26.0774 118.969 26.215 118.862 26.3506ZM119.213 25.8838C119.26 25.8176 119.31 25.7526 119.356 25.6855C119.407 25.6123 119.456 25.5374 119.506 25.4629C119.411 25.6054 119.313 25.7455 119.213 25.8838ZM95.4248 17.293C95.429 17.3714 95.4351 17.4495 95.4404 17.5273C95.4345 17.4408 95.4284 17.3539 95.4238 17.2666L95.4248 17.293ZM117.975 17.459C117.978 17.4038 117.983 17.3485 117.986 17.293L117.987 17.2666C117.984 17.331 117.979 17.395 117.975 17.459ZM107.776 4.62598C107.696 4.61961 107.615 4.61326 107.533 4.6084L107.509 4.60742C107.598 4.6126 107.688 4.61898 107.776 4.62598Z" fill="white"></path>
<path fill-rule="evenodd" clip-rule="evenodd" d="M88.1543 6.05078L87.0957 5.9873L86.1514 5.93164C83.182 5.93577 80.9713 6.8414 79.3896 8.55762C77.7979 10.2851 76.9375 12.7697 76.9375 16.1484V32.6426H70.832V14.0928L74.8877 6.70312C75.9363 4.50774 77.4955 2.82312 79.5596 1.68555L79.5674 1.68066C81.6763 0.541943 84.221 3.82975e-05 87.1543 0H88.1543V6.05078ZM78.0176 8.6543C77.9654 8.72552 77.9164 8.79913 77.8662 8.87207C77.9225 8.79032 77.9784 8.70851 78.0371 8.62891L78.0176 8.6543Z" fill="white"></path>
</svg>