<svg width="273" height="273" viewBox="0 0 273 273" fill="none" xmlns="http://www.w3.org/2000/svg">
<rect width="273" height="273" fill="#1B1B1B"></rect>
<path fill-rule="evenodd" clip-rule="evenodd" d="M71.8145 206.458C74.8263 206.458 77.5809 207.152 80.0547 208.554C82.5303 209.918 84.472 211.864 85.8701 214.372C87.2729 216.889 87.9628 219.739 87.9629 222.896C87.9628 226.088 87.2739 228.958 85.8701 231.477C84.4715 233.986 82.529 235.95 80.0547 237.353L80.0498 237.355C77.6107 238.72 74.8568 239.391 71.8145 239.391C69.2087 239.391 66.8177 238.86 64.6611 237.782L64.6504 237.777L64.6406 237.771C63.3829 237.106 62.2607 236.262 61.2705 235.251V273H55.1494V250.317H55.1465V232.087L55.1494 232.081V208.349H61.2705V224.419L61.2979 224.642C61.4769 226.096 61.8853 227.415 62.5176 228.605C63.4345 230.26 64.655 231.528 66.1807 232.433C67.7517 233.303 69.5263 233.748 71.5264 233.748C73.4881 233.748 75.2466 233.303 76.8223 232.428C78.3831 231.522 79.5966 230.257 80.4717 228.612L80.4795 228.599C81.3904 226.952 81.8583 225.059 81.8584 222.896C81.8583 220.732 81.3897 218.862 80.4834 217.259L80.4775 217.247L80.4717 217.236C79.5936 215.586 78.3755 214.317 76.8076 213.411C75.2345 212.502 73.4812 212.043 71.5264 212.043C70.1824 212.043 68.9431 212.252 67.8018 212.662L65.3164 213.555L68.8555 207.105L69.1016 206.658L69.6074 206.595C70.3239 206.504 71.0597 206.458 71.8145 206.458ZM70.5029 234.709C70.708 234.724 70.9149 234.736 71.124 234.742L70.751 234.727C70.6679 234.722 70.5853 234.715 70.5029 234.709ZM64.7686 232.696C65.0388 232.895 65.3204 233.081 65.6113 233.256C65.4257 233.144 65.2436 233.029 65.0664 232.907C64.966 232.838 64.8673 232.767 64.7695 232.695L64.7686 232.696ZM82.8232 223.9C82.8265 223.851 82.8322 223.801 82.835 223.751L82.8359 223.725C82.8328 223.783 82.8271 223.842 82.8232 223.9ZM86.9629 222.896L86.9561 222.371C86.9559 222.366 86.9552 222.361 86.9551 222.355C86.9598 222.534 86.9629 222.714 86.9629 222.896ZM84.9971 214.859C85.0044 214.873 85.0112 214.886 85.0186 214.899L84.9971 214.859ZM79.0957 213.844C79.1861 213.925 79.2749 214.009 79.3623 214.094C79.1876 213.924 79.0071 213.761 78.8203 213.604L79.0957 213.844ZM72.5791 211.086C72.4903 211.079 72.4011 211.072 72.3115 211.066L72.2871 211.065C72.3849 211.071 72.4822 211.078 72.5791 211.086Z" fill="white"></path>
<path fill-rule="evenodd" clip-rule="evenodd" d="M61.2705 273H55.1494V208.349H61.2705V273ZM56.1494 272H60.2705V209.349H56.1494V272Z" fill="white"></path>
<path fill-rule="evenodd" clip-rule="evenodd" d="M179.697 206.459C182.554 206.459 185.156 207.114 187.479 208.44C189.827 209.76 191.686 211.599 193.045 213.942C194.452 216.301 195.186 218.977 195.268 221.944L195.291 222.791L170.632 227.585C171.373 229.346 172.5 230.757 174.016 231.84L174.367 232.069C176.15 233.179 178.261 233.749 180.738 233.749C182.505 233.749 184.104 233.444 185.548 232.847C187.028 232.212 188.271 231.301 189.286 230.11L190.04 229.228L193.673 233.405L193.128 234.06C191.674 235.805 189.865 237.132 187.72 238.04C185.579 238.946 183.227 239.392 180.681 239.392C177.415 239.392 174.472 238.705 171.88 237.306L171.869 237.3C169.286 235.865 167.263 233.886 165.821 231.373C164.377 228.856 163.665 226.022 163.665 222.896C163.665 219.781 164.334 216.954 165.693 214.441L165.699 214.431C167.095 211.926 169.016 209.962 171.451 208.559C173.892 207.152 176.65 206.459 179.697 206.459ZM173.841 232.919C173.917 232.966 173.995 233.011 174.072 233.057C173.987 233.006 173.901 232.956 173.816 232.903L173.841 232.919ZM168.687 223.647L168.712 223.879L168.68 223.55C168.682 223.584 168.684 223.616 168.687 223.647ZM168.669 223.358C168.67 223.389 168.673 223.419 168.675 223.448C168.668 223.319 168.661 223.173 168.658 223.012L168.669 223.358ZM179.697 211.986C177.742 211.986 176.012 212.446 174.482 213.35L174.477 213.354C172.988 214.219 171.804 215.446 170.924 217.063L170.925 217.064C170.088 218.633 169.654 220.472 169.654 222.607C169.654 222.631 169.654 222.654 169.654 222.677L188.957 218.931C188.438 217.044 187.449 215.487 185.985 214.231L185.977 214.224C184.287 212.741 182.215 211.986 179.697 211.986ZM173.078 213.073C173.035 213.105 172.992 213.138 172.949 213.171C173.004 213.13 173.059 213.088 173.114 213.048L173.078 213.073ZM173.974 212.488C173.827 212.573 173.684 212.663 173.543 212.755C173.584 212.728 173.625 212.701 173.667 212.675L173.974 212.488ZM187.785 209.794C187.912 209.876 188.037 209.961 188.16 210.047C187.91 209.873 187.654 209.706 187.39 209.546L187.785 209.794Z" fill="white"></path>
<path fill-rule="evenodd" clip-rule="evenodd" d="M37.9053 206.458C39.9636 206.458 42.0187 206.74 44.0674 207.303L44.0664 207.304C46.1005 207.824 47.8266 208.534 49.2139 209.459L49.9746 209.966L47.2129 215.043L46.2979 214.409C43.9822 212.806 41.1998 211.985 37.9053 211.985C35.375 211.985 33.6254 212.436 32.5156 213.197C31.4574 213.948 30.9836 214.865 30.9834 216.015C30.9834 216.937 31.2652 217.582 31.7646 218.059C32.4105 218.636 33.2153 219.085 34.2012 219.393C35.0036 219.613 36.0456 219.848 37.333 220.096L38.7148 220.35L38.7275 220.352C41.1742 220.818 43.1641 221.289 44.6816 221.769C46.3099 222.283 47.7111 223.166 48.8701 224.411C50.1282 225.762 50.7001 227.574 50.7002 229.718C50.7002 232.713 49.4151 235.133 46.9238 236.895L46.9209 236.896C44.4939 238.6 41.1995 239.391 37.1533 239.391C34.5914 239.391 32.1222 239.03 29.75 238.307L29.7402 238.304L29.7305 238.3C27.4186 237.542 25.5351 236.584 24.1328 235.395L23.5 234.857L26.3379 229.891L27.249 230.609C28.4123 231.526 29.9057 232.306 31.752 232.934C33.5725 233.514 35.4678 233.806 37.4424 233.806C40.1552 233.806 41.9614 233.384 43.0273 232.694C44.0984 231.988 44.5947 231.066 44.5947 229.833C44.5946 228.956 44.3193 228.391 43.8516 227.997L43.8408 227.987L43.8291 227.977C43.2307 227.441 42.4505 227.025 41.4551 226.75L41.4395 226.746L41.4248 226.741C40.368 226.413 38.9331 226.095 37.1045 225.79L37.085 225.786C34.6 225.32 32.5735 224.849 31.0195 224.371L31.0088 224.368L30.9971 224.364C29.3361 223.811 27.9022 222.891 26.709 221.612L26.7031 221.605L26.6963 221.599C25.4443 220.207 24.8789 218.341 24.8789 216.131C24.879 213.258 26.0985 210.889 28.4521 209.092C30.8059 207.295 33.9975 206.458 37.9053 206.458ZM49.6768 229.021C49.6921 229.247 49.7002 229.479 49.7002 229.718L49.6953 229.377C49.6915 229.256 49.6847 229.138 49.6768 229.021ZM29.7119 222.715C29.7957 222.761 29.8804 222.807 29.9658 222.851C30.0516 222.895 30.1381 222.938 30.2256 222.979C29.9636 222.855 29.709 222.718 29.4619 222.57L29.7119 222.715ZM27.8545 221.349C28.0667 221.55 28.2866 221.74 28.5137 221.918L28.2891 221.735C28.0668 221.549 27.8519 221.352 27.6445 221.143L27.8545 221.349ZM38.541 221.335C38.8444 221.393 39.1404 221.45 39.4287 221.508L38.541 221.335ZM25.9014 216.854C25.9095 216.978 25.9202 217.101 25.9326 217.223C25.9088 216.991 25.8928 216.753 25.8848 216.509L25.9014 216.854ZM25.8906 215.662L25.8916 215.659C25.8935 215.624 25.8971 215.588 25.8994 215.553C25.897 215.589 25.8926 215.626 25.8906 215.662Z" fill="white"></path>
<path fill-rule="evenodd" clip-rule="evenodd" d="M108.558 206.458C111.169 206.458 113.55 207.011 115.675 208.136C116.967 208.784 118.115 209.619 119.121 210.634V206.689H125.226V239.102H119.295V235.047C118.3 236.093 117.154 236.964 115.854 237.651C113.687 238.818 111.247 239.391 108.558 239.391C105.545 239.391 102.79 238.697 100.316 237.295C97.8423 235.893 95.9005 233.928 94.502 231.419C93.0992 228.902 92.4092 226.052 92.4092 222.896C92.4092 219.739 93.0991 216.889 94.502 214.372C95.8998 211.864 97.8414 209.918 100.316 208.554C102.79 207.152 105.546 206.458 108.558 206.458ZM108.904 212.043C106.908 212.043 105.136 212.505 103.565 213.412L103.559 213.415C102.033 214.282 100.811 215.533 99.8926 217.193C99.0204 218.839 98.5723 220.732 98.5723 222.896C98.5723 225.059 99.0204 226.952 99.8926 228.598L100.068 228.905C100.964 230.414 102.127 231.583 103.559 232.433C105.13 233.304 106.904 233.748 108.904 233.748C110.867 233.748 112.602 233.303 114.135 232.433C115.7 231.527 116.916 230.26 117.793 228.612L117.797 228.605L117.801 228.598C118.712 226.951 119.179 225.059 119.179 222.896C119.179 220.732 118.712 218.84 117.801 217.193L117.797 217.186L117.793 217.179C116.917 215.531 115.702 214.286 114.143 213.42L114.131 213.414L114.119 213.407C112.589 212.503 110.859 212.043 108.904 212.043ZM114.628 233.303L114.949 233.11C115.004 233.076 115.058 233.038 115.112 233.003C114.954 233.106 114.793 233.207 114.628 233.303ZM97.5947 223.751C97.5987 223.825 97.6044 223.899 97.6094 223.973C97.6038 223.89 97.598 223.808 97.5938 223.725L97.5947 223.751ZM120.145 223.898C120.148 223.849 120.153 223.8 120.155 223.751L120.156 223.725C120.153 223.783 120.148 223.841 120.145 223.898ZM109.921 211.084C109.844 211.078 109.767 211.071 109.689 211.066L109.666 211.065C109.751 211.07 109.836 211.077 109.921 211.084Z" fill="white"></path>
<path fill-rule="evenodd" clip-rule="evenodd" d="M146.325 206.458C149.073 206.458 151.557 207.003 153.755 208.118L154.172 208.328C156.23 209.408 157.875 210.953 159.09 212.951L159.584 213.764L154.898 216.946L154.339 216.107C153.431 214.746 152.294 213.753 150.926 213.103L150.917 213.098L150.908 213.094C149.512 212.396 147.99 212.043 146.325 212.043C144.287 212.043 142.473 212.506 140.861 213.417L140.855 213.42C139.292 214.288 138.055 215.538 137.14 217.193C136.267 218.839 135.819 220.732 135.819 222.896C135.819 225.104 136.27 227.018 137.144 228.663C138.057 230.274 139.294 231.525 140.863 232.433C142.473 233.304 144.287 233.748 146.325 233.748C147.998 233.748 149.526 233.411 150.926 232.746C152.294 232.096 153.431 231.103 154.339 229.741L154.898 228.902L159.584 232.084L159.09 232.896C157.796 235.025 156.015 236.657 153.768 237.781L153.762 237.785L153.755 237.788C151.523 238.863 149.04 239.391 146.325 239.391C143.168 239.391 140.302 238.701 137.75 237.302L137.743 237.298C135.232 235.898 133.251 233.937 131.812 231.43L131.809 231.424C130.368 228.872 129.656 226.021 129.656 222.896C129.656 219.77 130.369 216.936 131.812 214.419C133.251 211.912 135.232 209.95 137.743 208.551L137.75 208.547C140.302 207.148 143.169 206.458 146.325 206.458ZM152.528 237.239C152.406 237.289 152.283 237.337 152.159 237.384C152.419 237.286 152.675 237.182 152.928 237.069L152.528 237.239ZM150.662 233.948C150.698 233.934 150.735 233.922 150.771 233.907L150.789 233.899C150.747 233.917 150.704 233.932 150.662 233.948ZM134.842 223.765C134.846 223.847 134.852 223.929 134.857 224.01C134.851 223.919 134.845 223.828 134.841 223.737L134.842 223.765ZM146.325 211.043C146.051 211.043 145.779 211.051 145.511 211.066L145.916 211.049C146.052 211.045 146.188 211.043 146.325 211.043Z" fill="white"></path>
<path fill-rule="evenodd" clip-rule="evenodd" d="M71.8145 161.923C74.8263 161.923 77.5808 162.617 80.0547 164.019C82.5304 165.383 84.472 167.329 85.8701 169.837C87.273 172.354 87.9629 175.204 87.9629 178.36C87.9628 181.553 87.274 184.423 85.8701 186.941C84.4715 189.451 82.529 191.415 80.0547 192.817L80.0498 192.82C77.6107 194.184 74.8568 194.855 71.8145 194.855C69.2087 194.855 66.8177 194.325 64.6611 193.247L64.6504 193.242L64.6406 193.236C63.3749 192.566 62.2457 191.717 61.251 190.697V205.782H55.1465V187.552L60.9199 177.03L61.2979 180.106C61.4769 181.561 61.8852 182.879 62.5176 184.07C63.4345 185.725 64.6549 186.992 66.1807 187.897C67.7517 188.768 69.5263 189.213 71.5264 189.213C73.4881 189.213 75.2466 188.768 76.8223 187.893C78.3832 186.987 79.5966 185.722 80.4717 184.077L80.4795 184.063C81.3905 182.417 81.8583 180.524 81.8584 178.36C81.8584 176.197 81.3897 174.327 80.4834 172.724L80.4775 172.712L80.4717 172.701C79.5936 171.051 78.3755 169.782 76.8076 168.876C75.2345 167.967 73.4813 167.508 71.5264 167.508C70.1824 167.508 68.9431 167.717 67.8018 168.127L65.3164 169.02L68.8555 162.57L69.1016 162.123L69.6074 162.06C70.3239 161.969 71.0597 161.923 71.8145 161.923ZM63.1533 186.691C63.1613 186.7 63.1697 186.709 63.1777 186.718C63.1541 186.692 63.1308 186.665 63.1074 186.639C63.1229 186.656 63.1378 186.674 63.1533 186.691ZM82.8232 179.365C82.8265 179.315 82.8322 179.266 82.835 179.216L82.8359 179.189C82.8328 179.248 82.8271 179.307 82.8232 179.365ZM72.5791 166.551C72.4903 166.544 72.4011 166.537 72.3115 166.531L72.2871 166.53C72.3849 166.536 72.4822 166.543 72.5791 166.551Z" fill="white"></path>
<path fill-rule="evenodd" clip-rule="evenodd" d="M130.234 161.923C133.319 161.923 136.13 162.615 138.643 164.016C141.152 165.415 143.115 167.376 144.516 169.884L144.777 170.359C146.046 172.756 146.672 175.43 146.672 178.36C146.672 181.486 145.96 184.32 144.516 186.837C143.116 189.343 141.157 191.32 138.653 192.757L138.643 192.763C136.13 194.163 133.319 194.855 130.234 194.855C127.15 194.855 124.339 194.163 121.826 192.763L121.815 192.757C119.311 191.32 117.333 189.342 115.896 186.837C114.451 184.32 113.739 181.486 113.739 178.36C113.739 175.235 114.451 172.401 115.896 169.884C117.334 167.376 119.315 165.415 121.826 164.016C124.339 162.615 127.15 161.923 130.234 161.923ZM130.234 167.508C128.238 167.508 126.466 167.97 124.896 168.877L124.889 168.88C123.363 169.747 122.141 170.997 121.223 172.658C120.35 174.304 119.902 176.197 119.902 178.36C119.902 180.524 120.35 182.416 121.223 184.062L121.398 184.37C122.294 185.879 123.457 187.048 124.889 187.897C126.46 188.768 128.234 189.213 130.234 189.213C132.239 189.213 133.993 188.767 135.522 187.897C137.088 186.992 138.304 185.725 139.181 184.077C140.058 182.428 140.509 180.53 140.509 178.36C140.509 176.19 140.058 174.293 139.181 172.644C138.304 170.996 137.09 169.751 135.53 168.885L135.519 168.879L135.508 168.872C133.98 167.97 132.232 167.508 130.234 167.508ZM142.362 188.273C142.431 188.186 142.501 188.098 142.568 188.009C142.605 187.96 142.639 187.91 142.675 187.86C142.573 188 142.469 188.138 142.362 188.273ZM142.713 187.807C142.76 187.74 142.81 187.675 142.856 187.608C142.907 187.535 142.956 187.46 143.006 187.386C142.911 187.528 142.813 187.668 142.713 187.807ZM118.925 179.216C118.929 179.294 118.935 179.372 118.94 179.45C118.934 179.364 118.928 179.277 118.924 179.189L118.925 179.216ZM141.475 179.382C141.478 179.327 141.483 179.271 141.486 179.216L141.487 179.189C141.484 179.254 141.479 179.318 141.475 179.382ZM131.276 166.549C131.196 166.542 131.115 166.536 131.033 166.531L131.009 166.53C131.098 166.535 131.188 166.542 131.276 166.549Z" fill="white"></path>
<path fill-rule="evenodd" clip-rule="evenodd" d="M111.654 167.974L110.596 167.91L109.651 167.854C106.682 167.859 104.471 168.764 102.89 170.48C101.298 172.208 100.438 174.693 100.438 178.071V194.565H94.332V176.016L98.3877 168.626C99.4363 166.431 100.995 164.746 103.06 163.608L103.067 163.604C105.176 162.465 107.721 161.923 110.654 161.923H111.654V167.974ZM101.518 170.577C101.465 170.648 101.416 170.722 101.366 170.795C101.422 170.713 101.478 170.631 101.537 170.552L101.518 170.577Z" fill="white"></path>
</svg>