<svg xmlns="http://www.w3.org/2000/svg" width="150" height="28" viewBox="0 0 150 28" fill="none"><path d="M21.246 12.5155C20.4919 12.2122 19.6106 12.0105 18.6037 11.9119C18.11 11.8634 17.5982 11.8285 17.0713 11.8042C17.8784 11.7178 18.6188 11.5995 19.279 11.4418C20.4268 11.1673 21.3111 10.7199 21.938 10.1027C22.5649 9.48553 22.8798 8.60748 22.8798 7.47012C22.8798 5.74436 22.1288 4.47506 20.6312 3.66071C19.1336 2.84788 16.8684 2.43994 13.8339 2.43994H0V21.3823H15.0377C16.779 21.3626 18.2963 21.1564 19.5894 20.7651C20.8826 20.3724 21.885 19.79 22.5997 19.0151C23.3144 18.2402 23.6718 17.2545 23.6718 16.058C23.6718 15.1178 23.4567 14.3671 23.0267 13.8075C22.5967 13.2494 22.0031 12.8172 21.249 12.5139M5.22405 6.55871H13.9475C15.0225 6.55871 15.8539 6.70581 16.4429 7.00001C17.0304 7.29421 17.3226 7.79313 17.3226 8.49981C17.3226 9.2065 17.0304 9.70997 16.4429 10.0148C15.8539 10.3196 14.9847 10.4712 13.8293 10.4712H5.22405V6.55871ZM17.3984 16.795C16.8199 17.1089 15.9538 17.2666 14.8 17.2666H5.22556V13.5012H14.535C15.2588 13.5012 15.9038 13.5361 16.4732 13.6043C17.0395 13.6725 17.4816 13.8348 17.7936 14.0896C18.107 14.3443 18.2645 14.728 18.2645 15.236C18.2645 15.9624 17.9753 16.4826 17.3984 16.795Z" fill="#2402B1"></path><path d="M31.5094 6.85303H26.458V21.384H31.5094V6.85303Z" fill="#2402B1"></path><path d="M31.7727 0H26.1943V3.7351H31.7727V0Z" fill="#2402B1"></path><path d="M40.2043 0.970459H35.1528V21.3839H40.2043V0.970459Z" fill="#2402B1"></path><path d="M60.3808 11.3857C60.346 11.2826 60.3172 11.1749 60.2779 11.0748C59.916 10.1437 59.3693 9.33387 58.6349 8.6469C57.9021 7.96145 56.9799 7.42613 55.873 7.04398C54.7661 6.66182 53.479 6.47075 52.0118 6.47075C50.2492 6.47075 48.6926 6.77556 47.3419 7.38367C45.9897 7.99178 44.9237 8.86376 44.1393 10.0011C43.3565 11.1385 42.9658 12.5215 42.9658 14.1487C42.9658 15.6788 43.361 17.0164 44.153 18.1644C44.9479 19.3108 46.0185 20.198 47.3707 20.8258C48.7214 21.4521 50.2674 21.766 52.0102 21.766C53.4775 21.766 54.7601 21.5507 55.8579 21.1185C56.9542 20.6878 57.8703 20.1085 58.6047 19.3836C59.3391 18.6587 59.8902 17.8383 60.2642 16.9269C60.3082 16.8177 60.3415 16.7055 60.3808 16.5963V16.9421C60.3808 17.7852 60.4096 18.6239 60.4702 19.4564C60.5277 20.2905 60.5958 20.9319 60.6731 21.3839H65.4035V0.970459H60.3808V11.3857ZM59.5147 16.3537C58.9378 16.9618 58.1519 17.4273 57.1661 17.7504C56.1759 18.0749 55.0341 18.2356 53.744 18.2356C52.6084 18.2356 51.6241 18.0643 50.7913 17.7215C49.9585 17.3788 49.3134 16.9087 48.8546 16.3097C48.3928 15.7122 48.1626 14.9919 48.1626 14.1487C48.1626 12.8551 48.6532 11.8391 49.6314 11.1036C50.6111 10.3681 51.98 10.0011 53.744 10.0011C55.0341 10.0011 56.1759 10.1528 57.1661 10.4576C58.1519 10.7624 58.9378 11.2128 59.5147 11.8118C60.0916 12.4108 60.3808 13.1888 60.3808 14.1502C60.3808 15.0131 60.0916 15.7486 59.5147 16.3567" fill="#2402B1"></path><path d="M79.5886 6.52985C79.098 6.49042 78.6195 6.4707 78.1486 6.4707C76.0529 6.4707 74.2903 6.74064 72.8624 7.28051C71.433 7.82037 70.3564 8.57103 69.6311 9.53097C68.9073 10.4909 68.5454 11.6298 68.5454 12.9431C68.5454 14.2563 68.9149 15.468 69.6614 16.3991C70.4049 17.3318 71.4906 18.0369 72.9215 18.5161C73.3879 18.6723 73.8982 18.7952 74.4312 18.8998C73.6468 18.9165 72.923 18.9711 72.2749 19.0757C71.2362 19.2425 70.4488 19.5367 69.9112 19.9583C69.3722 20.3799 69.1026 20.9926 69.1026 21.7963C69.1026 22.1891 69.1768 22.5712 69.3237 22.9443C69.4706 23.3158 69.7341 23.6449 70.1172 23.93C70.4987 24.2151 71.0423 24.4395 71.748 24.6063C72.4521 24.7731 73.3349 24.8566 74.3918 24.8566H80.3245C81.3814 24.8566 82.1824 24.9839 82.7321 25.2387C83.2787 25.4935 83.5543 26.0121 83.5543 26.7977V27.5332H88.6058V26.0333C88.6058 24.8566 88.3665 23.93 87.888 23.2536C87.4065 22.5773 86.6691 22.0966 85.6697 21.813C84.6718 21.5279 83.3878 21.3868 81.8221 21.3868H75.5956C75.1459 21.3868 74.8037 21.308 74.569 21.1518C74.3343 20.9956 74.2161 20.7802 74.2161 20.5042C74.2161 20.0144 74.5251 19.6853 75.1413 19.5185C75.7576 19.3517 76.76 19.2577 78.1516 19.2395C80.2276 19.2395 81.9689 19.0044 83.3802 18.5328C84.7884 18.0627 85.8514 17.3848 86.5661 16.5038C87.2808 15.6212 87.6382 14.5429 87.6382 13.2676C87.6382 12.4836 87.4353 11.7875 87.0355 11.1794C86.6342 10.5713 86.0952 10.0466 85.4198 9.60528C85.1412 9.4233 84.852 9.258 84.5613 9.09877C85.1836 9.2762 85.8332 9.44301 86.5373 9.59011C87.6609 9.82517 88.7723 9.92374 89.8701 9.88431V6.67846H81.0301C80.5592 6.61932 80.0792 6.57079 79.5901 6.53136M82.8184 13.0007C82.8184 13.6285 82.6428 14.1729 82.29 14.6339C81.9371 15.0949 81.4102 15.4483 80.7046 15.6924C79.9989 15.9381 79.1464 16.0594 78.1486 16.0594C77.1507 16.0594 76.2437 15.9381 75.5502 15.6924C74.8551 15.4483 74.3252 15.0949 73.9633 14.6339C73.6014 14.1729 73.4197 13.63 73.4197 13.0007C73.4197 12.3713 73.6014 11.7996 73.9633 11.3386C74.3252 10.8791 74.8536 10.5197 75.5502 10.2649C76.2452 10.0102 77.1098 9.88279 78.1486 9.88279C79.1873 9.88279 80.0186 10.0102 80.7046 10.2649C81.389 10.5197 81.9129 10.8776 82.2763 11.3386C82.6382 11.7996 82.8184 12.3531 82.8184 13.0007Z" fill="#2402B1"></path><path d="M99.0467 8.17675C98.5273 8.68629 98.1018 9.22615 97.7687 9.79484C97.434 10.3635 97.1766 10.8973 96.9904 11.3978C96.9722 11.4478 96.9646 11.4842 96.948 11.5312V6.85437H91.895V21.3853H96.948V13.7862C97.2024 13.4192 97.5234 13.0477 97.9746 12.6625C98.5621 12.1621 99.3056 11.7405 100.208 11.3978C101.108 11.055 102.137 10.8822 103.291 10.8822V6.4707C102.39 6.4707 101.589 6.62842 100.883 6.94233C100.178 7.25624 99.5676 7.66721 99.0482 8.17826" fill="#2402B1"></path><path d="M125.067 10.0147C124.352 8.80912 123.242 7.91591 121.734 7.33813C120.226 6.75884 118.307 6.4707 115.977 6.4707C113.647 6.4707 111.646 6.7558 109.972 7.32297C108.297 7.89165 107.001 8.74543 106.08 9.88279C105.159 11.0202 104.701 12.4411 104.701 14.1471C104.701 15.8532 105.172 17.2999 106.11 18.4267C107.049 19.5534 108.371 20.392 110.076 20.941C111.78 21.49 113.766 21.7644 116.038 21.7644C118.133 21.7644 119.885 21.5385 121.295 21.0881C122.705 20.6377 123.801 20.0099 124.585 19.2061C125.367 18.4024 125.838 17.4698 125.995 16.4113H121.06C120.845 16.9799 120.273 17.4409 119.342 17.7943C118.412 18.1476 117.261 18.3235 115.891 18.3235C114.52 18.3235 113.498 18.1673 112.647 17.8534C111.795 17.5395 111.139 17.1088 110.68 16.5599C110.218 16.0109 109.94 15.4119 109.843 14.7659H126.056C126.115 12.8051 125.786 11.2218 125.07 10.0147M110.014 12.6777C110.27 11.9528 110.871 11.3098 111.821 10.7502C112.77 10.1922 114.087 9.91161 115.771 9.91161C117.455 9.91161 118.737 10.1709 119.619 10.6911C120.5 11.2112 120.988 11.8724 121.088 12.6762H110.014V12.6777Z" fill="#2402B1"></path><path d="M148.507 10.0587C148.125 9.21706 147.591 8.52554 146.906 7.98567C146.22 7.4458 145.437 7.0591 144.556 6.82404C143.673 6.58899 142.735 6.4707 141.737 6.4707C140.404 6.4707 139.225 6.65723 138.196 7.03029C137.168 7.40334 136.308 7.878 135.612 8.45578C134.915 9.03508 134.372 9.64319 133.981 10.2801C133.787 10.594 133.633 10.8988 133.51 11.1961V6.85286H128.458V21.3838H133.51V12.9946C133.745 12.6216 134.075 12.2546 134.509 11.8967C135.117 11.3962 135.865 10.9853 136.756 10.6623C137.645 10.3393 138.611 10.177 139.649 10.177C141.234 10.177 142.365 10.4712 143.04 11.0596C143.717 11.648 144.053 12.6079 144.053 13.9424V21.3838H149.076V13.2069C149.076 11.9528 148.885 10.9034 148.504 10.0587" fill="#2402B1"></path></svg>